<?xml version="1.0" standalone="no"?>
<!DOCTYPE svg PUBLIC "-//W3C//DTD SVG 20010904//EN"
 "http://www.w3.org/TR/2001/REC-SVG-20010904/DTD/svg10.dtd">
<svg version="1.0" xmlns="http://www.w3.org/2000/svg"
 width="300.000000pt" height="63.000000pt" viewBox="0 0 300.000000 63.000000"
 preserveAspectRatio="xMidYMid meet">
<metadata>
Created by potrace 1.10, written by Peter Selinger 2001-2011
</metadata>
<g transform="translate(0.000000,63.000000) scale(0.100000,-0.100000)"
fill="#000000" stroke="none">
<path d="M261 573 c-7 -3 -69 -91 -138 -195 -105 -161 -124 -195 -121 -223 3
-31 13 -17 138 176 l135 209 71 0 71 0 141 -215 142 -216 -67 3 -67 3 -107
168 c-59 92 -108 170 -110 172 -2 2 -54 -75 -114 -170 l-110 -174 -62 -1 c-56
0 -63 -2 -63 -20 0 -18 7 -20 59 -20 43 0 65 5 84 20 14 11 63 79 109 150 45
71 88 130 95 130 7 0 31 -33 55 -72 57 -99 136 -206 158 -218 33 -18 115 -12
143 10 31 25 33 25 59 0 21 -19 36 -20 268 -20 245 0 247 0 268 23 31 33 30
96 -1 125 -21 20 -34 22 -131 22 -68 0 -105 4 -101 10 3 5 49 40 102 77 53 37
109 80 123 95 32 33 35 34 67 8 20 -16 41 -20 99 -20 l73 0 3 -144 c3 -137 4
-146 27 -170 30 -32 87 -35 122 -7 23 18 24 27 29 168 l5 148 81 5 c45 3 88
11 97 18 23 20 27 -4 27 -167 0 -203 -16 -191 247 -191 188 0 202 1 227 21
l26 20 26 -20 c26 -21 76 -27 109 -15 25 10 45 58 45 109 l0 45 53 0 c52 0 55
-1 113 -60 84 -86 112 -102 176 -98 41 2 54 7 56 21 3 15 -5 17 -55 17 l-58 0
-85 85 -85 85 -77 0 -78 0 0 -85 0 -85 -50 0 -50 0 0 218 0 217 50 -3 50 -4 0
-84 0 -84 78 0 77 0 85 85 c79 80 87 85 126 85 52 0 74 8 74 26 0 11 -16 14
-65 14 l-65 0 -89 -85 c-71 -67 -96 -85 -120 -85 -54 0 -61 8 -61 65 0 74 -25
105 -88 105 -33 0 -52 -6 -69 -22 l-23 -21 -23 21 c-22 21 -32 22 -228 22
-171 0 -208 -3 -227 -16 -21 -15 -25 -15 -41 0 -15 14 -53 16 -276 16 -252 0
-259 -1 -282 -22 l-23 -21 -23 21 c-23 21 -31 22 -268 22 -244 0 -246 0 -267
-23 -43 -45 -19 -128 41 -142 12 -3 60 -6 107 -7 l85 -3 -118 -83 c-116 -82
-147 -117 -147 -164 0 -15 -48 49 -139 189 -77 116 -149 216 -160 222 -20 11
-145 14 -170 4z m1019 -74 l0 -45 -181 -127 -181 -127 186 0 186 0 0 -45 0
-45 -260 0 -260 0 0 44 0 44 179 123 c99 68 180 128 180 132 1 5 -78 7 -174 5
l-175 -3 0 45 0 45 250 0 250 0 0 -46z m608 -1 l-3 -42 -107 3 -108 3 0 -176
0 -176 -50 0 -51 0 1 173 2 172 -106 0 -106 0 0 45 0 45 266 -3 265 -3 -3 -41z
m492 -1 l0 -42 -165 3 -165 4 0 -46 0 -46 160 0 160 0 0 -42 0 -43 -160 4
-160 3 0 -46 0 -46 165 0 165 0 0 -45 0 -45 -210 0 -210 0 0 218 0 217 210 -3
210 -3 0 -42z m40 -99 l0 -43 -27 27 c-22 23 -24 29 -13 42 24 30 40 19 40
-26z m0 -148 c0 -43 -5 -47 -32 -26 -22 16 -22 25 -1 48 25 27 33 22 33 -22z"/>
<path d="M2900 436 c-52 -53 -96 -100 -98 -104 -1 -4 43 -55 97 -112 95 -100
100 -104 101 -75 0 25 -13 44 -70 100 -38 38 -70 76 -70 84 0 9 32 48 71 87
53 53 70 77 67 94 -3 19 -16 9 -98 -74z"/>
<path d="M294 252 c-50 -40 -57 -95 -19 -140 49 -58 126 -48 159 22 23 49 20
64 -18 102 -39 39 -87 45 -122 16z m98 -39 c24 -21 23 -58 -2 -83 -24 -24 -48
-25 -78 -4 -26 18 -30 65 -6 88 20 21 63 20 86 -1z"/>
</g>
</svg>
